<?xml version="1.0" encoding="utf-8"?>
<!-- Generator: Adobe Illustrator 19.0.0, SVG Export Plug-In . SVG Version: 6.00 Build 0)  -->
<svg version="1.1" id="图层_1" xmlns="http://www.w3.org/2000/svg" xmlns:xlink="http://www.w3.org/1999/xlink" x="0px" y="0px"
	 viewBox="230 -34 128 128" style="enable-background:new 230 -34 128 128;" xml:space="preserve">
<style type="text/css">
	.st0{fill:#4461EB;}
	.st1{fill:#29DD90;}
</style>
<g>
	<path class="st0" d="M328.4,8.5C325.7-7.7,311.3-20,294-20S262.3-7.7,259.6,8.5C242.8,11,230,25.1,230,42.1
		c0,17.8,14.1,32.3,32,33.8l1.6-11.2c-12.2-0.6-21.9-10.6-21.9-22.6c0-12.5,10.4-22.6,23-22.6h5.9v-5.6
		c0.2-12.3,10.6-22.4,23.2-22.4c12.8,0,23.2,10.1,23.2,22.4v5.6h5.9c12.8,0.2,23,10.2,23,22.6c0,12-9.8,21.9-21.9,22.6l1.6,11.2
		c18.1-1.4,32.3-16.2,32.3-33.8C358,25.1,345.2,11,328.4,8.5L328.4,8.5z"/>
	<path class="st1" d="M279.4,76h-11.7l7.4-53.8h10.1L279.4,76z M320.2,76h-11.7l-5.8-53.8h10.1L320.2,76z"/>
	<path class="st1" d="M276.6,53.4h34.9v11.4h-34.9V53.4z M276.6,33.6h34.9v8.5h-34.9V33.6z"/>
</g>
</svg>
